<?xml version="1.0" encoding="utf-8"?>
<!-- Generator: Adobe Illustrator 25.1.0, SVG Export Plug-In . SVG Version: 6.00 Build 0)  -->
<svg version="1.1" id="Layer_1" xmlns="http://www.w3.org/2000/svg" xmlns:xlink="http://www.w3.org/1999/xlink" x="0px" y="0px"
	 viewBox="0 0 1366 132" style="enable-background:new 0 0 1366 132;" xml:space="preserve">
<style type="text/css">
	.st0{fill:#FFFFFF;}
	.st1{fill:#F0425C;}
</style>
<g>
	<g>
		<path class="st0" d="M396.9,105.4L396.9,105.4c-3,0-5.7-1.6-7-4.2L382.1,86h-57.7l-7.8,15.1c-1.3,2.6-4,4.2-6.9,4.2l0,0
			c-5.8,0-9.6-6.2-7-11.4L329,42.5c4.9-9.7,10.9-16.6,24.3-16.6s19.2,6.9,24.3,16.6L403.9,94C406.6,99.2,402.8,105.4,396.9,105.4z
			 M361.4,45.8c-1.7-3.3-3.9-5.4-8.1-5.4s-6.4,2.1-8.1,5.4l-13.3,25.7h42.7L361.4,45.8z"/>
		<path class="st0" d="M430.3,105.4h-0.7c-4.3,0-7.8-3.5-7.8-7.8V27.1h11.6c21.1,0,26.8,6.8,46.6,34.1c18.7,25.8,20,27.6,28.5,27.6
			h0.1V34.9c0-4.3,3.5-7.8,7.8-7.8h0.7c4.3,0,7.8,3.5,7.8,7.8v70.5h-11.6c-19.4,0-25.2-6.2-46.6-34.2c-20-26.2-20.6-27.5-28.5-27.5
			h-0.1v53.9C438.1,101.9,434.6,105.4,430.3,105.4z"/>
		<path class="st0" d="M544.4,27.1h64.4c28.1,0,37.7,13.4,37.7,39.2s-9.6,39.2-37.7,39.2h-64.4V27.1z M608.8,43h-48v46.4h48
			c18.7,0,21-8.1,21-23.1S627.5,43,608.8,43z"/>
		<path class="st0" d="M662.4,27.1h68c19.2,0,31.1,8.7,31.1,24.4c0,11-5.8,17.8-16,20.7c10,3.2,14.3,9.6,14.3,17.8v7.6
			c0,4.3-3.5,7.8-7.8,7.8h-1.3c-4.3,0-7.8-3.5-7.8-7.8v-8c0-4.4-2.4-10-12.8-10h-51.3v18c0,4.3-3.5,7.8-7.8,7.8h-0.7
			c-4.3,0-7.8-3.5-7.8-7.8V27.1H662.4z M731.7,65.1c10.1,0,13.2-6.6,13.2-11.8s-3.1-11.8-13.2-11.8h-52.9v23.6H731.7z"/>
		<path class="st0" d="M883.9,66.2c0,30.3-17.6,40.3-55,40.3c-37.3,0-55-10-55-40.3s17.6-40.3,55-40.3
			C866.3,25.9,883.9,35.9,883.9,66.2z M867.2,66.2c0-21.9-12.6-24.9-38.2-24.9s-38.3,3-38.3,24.9s12.6,24.9,38.3,24.9
			S867.2,88.1,867.2,66.2z"/>
		<path class="st0" d="M915.6,44.3v53.2c0,4.3-3.5,7.8-7.8,7.8h-0.4c-4.3,0-7.8-3.5-7.8-7.8V27.1h15.9c6.1,0,8.7,3.1,11.1,6.1
			l32.5,40l32.5-40c2.4-3,5-6.1,11.1-6.1h15.9v70.5c0,4.3-3.5,7.8-7.8,7.8h-0.4c-4.3,0-7.8-3.5-7.8-7.8V44.3l-37.2,44.9h-12.6
			L915.6,44.3z"/>
		<path class="st0" d="M1072.4,42.6c-15.3,0-19.9,5.8-21.1,16.3h81.8v14.7h-81.8c1.1,10.4,5.7,16.1,21.1,16.1h62.1v15.7h-62.1
			c-28.1,0-37.8-13.4-37.8-39.2s9.7-39.2,37.8-39.2h62.1v15.6H1072.4z"/>
		<path class="st0" d="M1151.6,27.1h64.4c28.1,0,37.7,13.4,37.7,39.2s-9.6,39.2-37.7,39.2h-64.4V27.1z M1216,43h-48v46.4h48
			c18.7,0,21-8.1,21-23.1S1234.7,43,1216,43z"/>
		<path class="st0" d="M1358.2,105.4L1358.2,105.4c-3,0-5.7-1.6-7-4.2l-7.8-15.1h-57.7l-7.8,15.1c-1.3,2.6-4,4.2-6.9,4.2l0,0
			c-5.8,0-9.6-6.2-7-11.4l26.3-51.5c4.9-9.7,10.9-16.6,24.3-16.6s19.2,6.9,24.3,16.6l26.4,51.5C1367.8,99.2,1364,105.4,1358.2,105.4
			z M1322.6,45.8c-1.7-3.3-3.9-5.4-8.1-5.4s-6.4,2.1-8.1,5.4l-13.3,25.7h42.7L1322.6,45.8z"/>
	</g>
	<g>
		<g>
			<path class="st1" d="M46,59.1c-0.8,0.8-0.6,2,0.4,2.5c0.2,0.1,0.5,0.2,0.7,0.4c5.3,2.5,12,4.6,19.8,6.3
				c6.2,1.3,12.8,2.3,20.1,3.1c0.7,0.1,1.4-0.2,1.9-0.7l22.4-22.4c0.9-0.9,2.5-0.9,3.4,0l22.5,22.5c0.5,0.5,1.2,0.7,1.9,0.7
				c7.8-0.8,14.8-1.9,21.3-3.3c3.7-0.8,7.2-1.8,10.5-2.8c3.9-1.3,6.7-2.4,8.9-3.6l0,0c0.9-0.5,1.1-1.7,0.4-2.5l-20.5-20.5l-0.5-0.5
				v0.1l-11.9-11.9l-2.3-2.3l-9.7-9.7h0.1l-8.6-8.6c-7.5-7.5-19.8-7.5-27.3,0l-8.6,8.6L81.2,24L79,26.1L66.9,38.3L46,59.1z"/>
			<path class="st1" d="M220.2,99.1l-7-7L208,87c-0.9-0.9-1-2.2-0.2-3.2c1.3-1.7,2.6-3.6,3.8-5.6c1.6-2.7,2.9-5.7,3.8-8.9
				c0.9-3.2,1.4-6.6,1.3-9.9c-0.1-3.3-0.8-6.7-2-9.9c-1.3-3.1-3.1-5.9-5.2-8.2c-4.2-4.6-9.1-7.3-13.8-9.3s-9.5-3.2-14.2-4.2
				s-9.4-1.6-14-2.1c-3-0.3-6-0.6-9-0.8c-1.3-0.1-2.5,1-2.5,2.3l0,0c0.2,0.6,0.7,1.1,1.3,1.3c3,0.7,6.1,1.5,9,2.4
				c2.2,0.7,4.3,1.4,6.4,2.2c2.1,0.8,4.1,1.7,6.1,2.6c4,1.9,7.7,4.1,11,6.6c3.2,2.5,5.8,5.4,7,8.2s1.1,5.2,0.3,7.7
				c-0.8,2.4-2.4,4.4-4.6,6.5c-1.1,1-2.4,2-3.8,2.9l-0.1,0.1c-1.4,0.9-2.8,1.7-4.4,2.5c-3.2,1.7-6.7,3-10.4,4.2s-7.5,2.2-11.4,3.1
				c-5.2,1.2-10.5,2-15.9,2.7c-2.7,0.3-5.4,0.6-8.1,0.9c-8.2,0.8-16.4,1.1-24.7,1.1S97.2,81.9,89,81.1c-3.1-0.3-6.2-0.6-9.3-1
				c-5-0.7-9.9-1.5-14.7-2.5c-7.8-1.7-15.4-3.9-21.9-7.1c-1.9-0.9-3.7-1.9-5.4-3c-1.1-0.7-2.2-1.5-3.2-2.3c-2.3-2-4-4-5-6.3
				c-0.3-0.6-0.4-1.2-0.6-1.8s-0.3-1.2-0.3-1.9c-0.1-1.3,0-2.5,0.5-3.9c0.9-2.8,3.2-5.8,6.2-8.4c3-2.6,6.7-4.9,10.6-6.8
				c3.9-1.9,8.1-3.6,12.4-5c3.5-1.1,7-2.1,10.6-2.9c0.8-0.2,1.3-0.8,1.4-1.6c0.1-1.1-0.9-1.9-2-1.9c-3.7,0.2-7.4,0.6-11.2,1
				c-4.6,0.5-9.3,1.2-14,2.3c-4.7,1-9.5,2.4-14.2,4.6c-2.4,1.1-4.8,2.4-7.1,4.1c-2.3,1.7-4.5,3.7-6.5,6.2c-1.9,2.5-3.5,5.5-4.5,8.8
				c-1,3.2-1.4,6.6-1.3,10c0.1,3.4,0.8,6.7,1.9,9.8s2.5,6,4.2,8.6c0.9,1.4,1.8,2.7,2.8,3.9c0.7,1,0.6,2.3-0.2,3.2l-5.2,5l-7,7
				c-7.4,7.4-7.9,19.4-0.8,27.1c7.5,8,20.1,8.2,27.8,0.5l11.4-11.4l5.9-5.9c0.7-0.7,1.8-0.9,2.7-0.5c0.5,0.2,1,0.5,1.6,0.7
				c9.6,4,19.4,6.7,29.4,8.5c9.9,1.8,20,2.6,30,2.5c10,0,20-1,30-2.9c9.9-1.9,19.8-4.8,29.3-8.9l0,0c0.9-0.4,2-0.2,2.7,0.5l5.9,5.9
				l11.5,11.5c3.8,3.8,8.7,5.7,13.6,5.7c5,0,10-1.9,13.8-5.8C228.1,119,227.7,106.6,220.2,99.1z"/>
		</g>
	</g>
</g>
</svg>
