<svg width="162" height="43" viewBox="0 0 162 43" fill="none" xmlns="http://www.w3.org/2000/svg">
<path d="M6.13745 42.5786L5.6009 40.8245H2.91818L2.38163 42.5786H0.699768L3.29995 35.1805H5.20881L7.81931 42.5786H6.13745ZM4.6929 37.8013C4.65851 37.6844 4.6138 37.5365 4.55877 37.3576C4.50374 37.1788 4.44871 36.9965 4.39368 36.8107C4.33865 36.625 4.29394 36.4634 4.25954 36.3258C4.22515 36.4634 4.177 36.6353 4.11509 36.8417C4.06006 37.0412 4.00503 37.2338 3.95 37.4195C3.90184 37.5984 3.86401 37.7256 3.8365 37.8013L3.31027 39.5141H5.22945L4.6929 37.8013ZM17.3474 42.5786H15.3663L12.1574 37.0068H12.1161C12.1299 37.3576 12.1436 37.7084 12.1574 38.0592C12.178 38.4101 12.1952 38.7609 12.209 39.1117V42.5786H10.816V35.2114H12.7868L15.9854 40.7317H16.0164C16.0095 40.3877 15.9992 40.0472 15.9854 39.7102C15.9717 39.3731 15.9579 39.036 15.9442 38.699V35.2114H17.3474V42.5786ZM27.3816 38.8228C27.3816 40.0679 27.0274 41.0068 26.3188 41.6397C25.6172 42.2656 24.6301 42.5786 23.3575 42.5786H21.2733V35.2114H23.5845C24.355 35.2114 25.0222 35.349 25.5863 35.6242C26.1572 35.8993 26.5974 36.3052 26.907 36.8417C27.2234 37.3714 27.3816 38.0317 27.3816 38.8228ZM25.7617 38.8641C25.7617 38.0455 25.5828 37.447 25.2251 37.0687C24.8674 36.6835 24.3481 36.4909 23.6671 36.4909H22.8313V41.2888H23.502C25.0084 41.2888 25.7617 40.4806 25.7617 38.8641ZM33.1209 35.2114C34.1252 35.2114 34.8647 35.3937 35.3394 35.7583C35.8209 36.1229 36.0616 36.6766 36.0616 37.4195C36.0616 37.7566 35.9963 38.0524 35.8656 38.3069C35.7418 38.5545 35.5732 38.7678 35.36 38.9466C35.1536 39.1186 34.9301 39.2596 34.6893 39.3697L36.8561 42.5786H35.1227L33.3686 39.7514H32.5328V42.5786H30.9748V35.2114H33.1209ZM33.0074 36.4909H32.5328V38.4823H33.0384C33.5543 38.4823 33.9223 38.3963 34.1424 38.2243C34.3694 38.0524 34.4829 37.7979 34.4829 37.4608C34.4829 37.11 34.3626 36.8623 34.1218 36.7179C33.8879 36.5666 33.5165 36.4909 33.0074 36.4909ZM46.5362 38.8847C46.5362 39.6482 46.4089 40.3155 46.1544 40.8864C45.9068 41.4505 45.525 41.8907 45.0091 42.2072C44.4932 42.5236 43.8328 42.6818 43.028 42.6818C42.2301 42.6818 41.5697 42.5236 41.0469 42.2072C40.531 41.8907 40.1458 41.4471 39.8913 40.8761C39.6437 40.3052 39.5198 39.6379 39.5198 38.8744C39.5198 38.1108 39.6437 37.447 39.8913 36.883C40.1458 36.3189 40.531 35.8821 41.0469 35.5726C41.5697 35.2561 42.2335 35.0979 43.0383 35.0979C43.8363 35.0979 44.4932 35.2561 45.0091 35.5726C45.525 35.8821 45.9068 36.3224 46.1544 36.8933C46.4089 37.4574 46.5362 38.1212 46.5362 38.8847ZM41.1604 38.8847C41.1604 39.6551 41.3083 40.2639 41.6041 40.711C41.8999 41.1513 42.3745 41.3714 43.028 41.3714C43.6953 41.3714 44.1733 41.1513 44.4622 40.711C44.7512 40.2639 44.8956 39.6551 44.8956 38.8847C44.8956 38.1074 44.7512 37.4986 44.4622 37.0584C44.1733 36.6181 43.6987 36.398 43.0383 36.398C42.378 36.398 41.8999 36.6181 41.6041 37.0584C41.3083 37.4986 41.1604 38.1074 41.1604 38.8847ZM53.242 42.5786L51.4672 36.8004H51.426C51.4328 36.938 51.4432 37.1444 51.4569 37.4195C51.4707 37.6947 51.4844 37.9905 51.4982 38.3069C51.5119 38.6164 51.5188 38.8985 51.5188 39.153V42.5786H50.1259V35.2114H52.2514L53.9952 40.8452H54.0261L55.8731 35.2114H57.9986V42.5786H56.5438V39.0911C56.5438 38.8572 56.5472 38.5889 56.5541 38.2862C56.5679 37.9836 56.5782 37.6981 56.5851 37.4298C56.5988 37.1547 56.6091 36.9483 56.616 36.8107H56.5747L54.6762 42.5786H53.242ZM66.164 42.5786H61.9233V35.2114H66.164V36.4909H63.4813V38.1108H65.9783V39.3903H63.4813V41.2888H66.164V42.5786ZM75.869 38.8228C75.869 40.0679 75.5148 41.0068 74.8062 41.6397C74.1046 42.2656 73.1175 42.5786 71.8449 42.5786H69.7607V35.2114H72.0719C72.8423 35.2114 73.5096 35.349 74.0737 35.6242C74.6446 35.8993 75.0848 36.3052 75.3944 36.8417C75.7108 37.3714 75.869 38.0317 75.869 38.8228ZM74.2491 38.8641C74.2491 38.0455 74.0702 37.447 73.7125 37.0687C73.3548 36.6835 72.8355 36.4909 72.1545 36.4909H71.3187V41.2888H71.9894C73.4958 41.2888 74.2491 40.4806 74.2491 38.8641ZM83.7697 42.5786L83.2331 40.8245H80.5504L80.0139 42.5786H78.332L80.9322 35.1805H82.841L85.4515 42.5786H83.7697ZM82.3251 37.8013C82.2907 37.6844 82.246 37.5365 82.191 37.3576C82.136 37.1788 82.0809 36.9965 82.0259 36.8107C81.9709 36.625 81.9262 36.4634 81.8918 36.3258C81.8574 36.4634 81.8092 36.6353 81.7473 36.8417C81.6923 37.0412 81.6373 37.2338 81.5822 37.4195C81.5341 37.5984 81.4962 37.7256 81.4687 37.8013L80.9425 39.5141H82.8617L82.3251 37.8013ZM95.5447 35.2114C96.494 35.2114 97.1853 35.4178 97.6187 35.8305C98.0589 36.2364 98.2791 36.797 98.2791 37.5124C98.2791 37.9389 98.1896 38.3413 98.0108 38.7196C97.8319 39.0911 97.5327 39.3903 97.1131 39.6173C96.7004 39.8443 96.1363 39.9578 95.4209 39.9578H94.7502V42.5786H93.1922V35.2114H95.5447ZM95.4622 36.4909H94.7502V38.6783H95.2661C95.7064 38.6783 96.0538 38.5924 96.3083 38.4204C96.5697 38.2415 96.7004 37.9561 96.7004 37.564C96.7004 36.8486 96.2876 36.4909 95.4622 36.4909ZM103.881 35.2114C104.885 35.2114 105.625 35.3937 106.1 35.7583C106.581 36.1229 106.822 36.6766 106.822 37.4195C106.822 37.7566 106.756 38.0524 106.626 38.3069C106.502 38.5545 106.333 38.7678 106.12 38.9466C105.914 39.1186 105.69 39.2596 105.449 39.3697L107.616 42.5786H105.883L104.129 39.7514H103.293V42.5786H101.735V35.2114H103.881ZM103.768 36.4909H103.293V38.4823H103.799C104.314 38.4823 104.682 38.3963 104.903 38.2243C105.13 38.0524 105.243 37.7979 105.243 37.4608C105.243 37.11 105.123 36.8623 104.882 36.7179C104.648 36.5666 104.277 36.4909 103.768 36.4909ZM117.296 38.8847C117.296 39.6482 117.169 40.3155 116.915 40.8864C116.667 41.4505 116.285 41.8907 115.769 42.2072C115.253 42.5236 114.593 42.6818 113.788 42.6818C112.99 42.6818 112.33 42.5236 111.807 42.2072C111.291 41.8907 110.906 41.4471 110.651 40.8761C110.404 40.3052 110.28 39.6379 110.28 38.8744C110.28 38.1108 110.404 37.447 110.651 36.883C110.906 36.3189 111.291 35.8821 111.807 35.5726C112.33 35.2561 112.994 35.0979 113.798 35.0979C114.596 35.0979 115.253 35.2561 115.769 35.5726C116.285 35.8821 116.667 36.3224 116.915 36.8933C117.169 37.4574 117.296 38.1212 117.296 38.8847ZM111.921 38.8847C111.921 39.6551 112.068 40.2639 112.364 40.711C112.66 41.1513 113.135 41.3714 113.788 41.3714C114.455 41.3714 114.933 41.1513 115.222 40.711C115.511 40.2639 115.656 39.6551 115.656 38.8847C115.656 38.1074 115.511 37.4986 115.222 37.0584C114.933 36.6181 114.459 36.398 113.798 36.398C113.138 36.398 112.66 36.6181 112.364 37.0584C112.068 37.4986 111.921 38.1074 111.921 38.8847ZM123.411 42.5786H121.853V36.5115H119.851V35.2114H125.413V36.5115H123.411V42.5786ZM135.097 38.8847C135.097 39.6482 134.97 40.3155 134.715 40.8864C134.468 41.4505 134.086 41.8907 133.57 42.2072C133.054 42.5236 132.394 42.6818 131.589 42.6818C130.791 42.6818 130.131 42.5236 129.608 42.2072C129.092 41.8907 128.707 41.4471 128.452 40.8761C128.205 40.3052 128.081 39.6379 128.081 38.8744C128.081 38.1108 128.205 37.447 128.452 36.883C128.707 36.3189 129.092 35.8821 129.608 35.5726C130.131 35.2561 130.795 35.0979 131.599 35.0979C132.397 35.0979 133.054 35.2561 133.57 35.5726C134.086 35.8821 134.468 36.3224 134.715 36.8933C134.97 37.4574 135.097 38.1212 135.097 38.8847ZM129.721 38.8847C129.721 39.6551 129.869 40.2639 130.165 40.711C130.461 41.1513 130.936 41.3714 131.589 41.3714C132.256 41.3714 132.734 41.1513 133.023 40.711C133.312 40.2639 133.457 39.6551 133.457 38.8847C133.457 38.1074 133.312 37.4986 133.023 37.0584C132.734 36.6181 132.26 36.398 131.599 36.398C130.939 36.398 130.461 36.6181 130.165 37.0584C129.869 37.4986 129.721 38.1074 129.721 38.8847ZM141.813 36.4083C141.215 36.4083 140.757 36.6319 140.441 37.079C140.125 37.5261 139.966 38.1384 139.966 38.9157C139.966 39.6998 140.111 40.3086 140.4 40.742C140.696 41.1685 141.167 41.3817 141.813 41.3817C142.116 41.3817 142.415 41.3473 142.711 41.2785C143.014 41.2097 143.34 41.1134 143.691 40.9896V42.3C143.368 42.4307 143.048 42.527 142.732 42.5889C142.415 42.6508 142.061 42.6818 141.669 42.6818C140.912 42.6818 140.286 42.527 139.791 42.2175C139.303 41.9011 138.941 41.4608 138.708 40.8967C138.474 40.3258 138.357 39.662 138.357 38.9053C138.357 38.1624 138.491 37.5055 138.759 36.9346C139.027 36.3636 139.416 35.9165 139.925 35.5932C140.441 35.2699 141.07 35.1082 141.813 35.1082C142.178 35.1082 142.542 35.1564 142.907 35.2527C143.278 35.3421 143.633 35.4659 143.97 35.6242L143.464 36.8933C143.189 36.7626 142.91 36.6491 142.628 36.5528C142.353 36.4565 142.082 36.4083 141.813 36.4083ZM153.805 38.8847C153.805 39.6482 153.678 40.3155 153.423 40.8864C153.176 41.4505 152.794 41.8907 152.278 42.2072C151.762 42.5236 151.102 42.6818 150.297 42.6818C149.499 42.6818 148.839 42.5236 148.316 42.2072C147.8 41.8907 147.415 41.4471 147.16 40.8761C146.912 40.3052 146.789 39.6379 146.789 38.8744C146.789 38.1108 146.912 37.447 147.16 36.883C147.415 36.3189 147.8 35.8821 148.316 35.5726C148.839 35.2561 149.502 35.0979 150.307 35.0979C151.105 35.0979 151.762 35.2561 152.278 35.5726C152.794 35.8821 153.176 36.3224 153.423 36.8933C153.678 37.4574 153.805 38.1212 153.805 38.8847ZM148.429 38.8847C148.429 39.6551 148.577 40.2639 148.873 40.711C149.169 41.1513 149.643 41.3714 150.297 41.3714C150.964 41.3714 151.442 41.1513 151.731 40.711C152.02 40.2639 152.164 39.6551 152.164 38.8847C152.164 38.1074 152.02 37.4986 151.731 37.0584C151.442 36.6181 150.967 36.398 150.307 36.398C149.647 36.398 149.169 36.6181 148.873 37.0584C148.577 37.4986 148.429 38.1074 148.429 38.8847ZM157.395 42.5786V35.2114H158.953V41.2888H161.945V42.5786H157.395Z" fill="white"/>
<path d="M103.84 18.6045L104.441 19.132C106.501 20.9392 106.501 24.1454 104.441 25.9526V25.9526C102.729 27.4551 100.168 27.4551 98.4559 25.9526L94.9817 22.9038M99.041 14.393L85.1299 2.18529C83.0532 0.362871 79.9471 0.362869 77.8704 2.18528L64.6471 13.7894M88.5149 17.2288L85.1299 14.2583C83.0532 12.4358 79.9471 12.4358 77.8704 14.2583L74.4854 17.2288M68.0185 22.9038L64.5443 25.9526C62.8321 27.4551 60.2712 27.4551 58.559 25.9526V25.9526C56.4996 24.1454 56.4996 20.9392 58.559 19.132L58.9686 18.7726" stroke="white" stroke-width="0.687879"/>
<path d="M90.7863 4.15918C110.047 4.15918 115.894 24.1077 81.5002 24.1077C47.1063 24.1077 51.5775 4.15918 71.5259 4.15918C60.5201 5.53494 57.0803 17.5728 81.5002 17.5728C104.888 17.5728 104.888 8.28645 90.7863 4.15918" stroke="white" stroke-width="0.687879"/>
</svg>
