<svg xmlns:dc="http://purl.org/dc/elements/1.1/" xmlns:cc="http://creativecommons.org/ns#" xmlns:rdf="http://www.w3.org/1999/02/22-rdf-syntax-ns#" xmlns:svg="http://www.w3.org/2000/svg" xmlns="http://www.w3.org/2000/svg" xmlns:sodipodi="http://sodipodi.sourceforge.net/DTD/sodipodi-0.dtd" xmlns:inkscape="http://www.inkscape.org/namespaces/inkscape" version="1.1" x="0px" y="0px" viewBox="0 0 100 100" enable-background="new 0 0 32 32" xml:space="preserve"><path style="font-size:medium;font-style:normal;font-variant:normal;font-weight:normal;font-stretch:normal;text-indent:0;text-align:start;text-decoration:none;line-height:normal;letter-spacing:normal;word-spacing:normal;text-transform:none;direction:ltr;block-progression:tb;writing-mode:lr-tb;text-anchor:start;baseline-shift:baseline;opacity:1;color:#000000;fill:#000000;fill-opacity:1;stroke:none;stroke-width:4;marker:none;visibility:visible;display:inline;overflow:visible;enable-background:accumulate;font-family:Sans;-inkscape-font-specification:Sans" d="M 32 6 C 23.724658 6 17 12.724689 17 21 L 17 79 C 17 87.275342 23.724658 94 32 94 L 68 94 C 76.275342 94 83 87.275342 83 79 L 83 21 C 83 12.724658 76.275342 6 68 6 L 32 6 z M 32 10 L 68 10 C 74.128468 10 79 14.871532 79 21 L 79 79 C 79 85.128468 74.128468 90 68 90 L 32 90 C 25.871532 90 21 85.128468 21 79 L 21 21 C 21 14.871501 25.871532 10 32 10 z M 65.8125 25 A 2.0001998 2.0001998 0 0 0 65.3125 25.125 L 49.3125 31.125 A 2.0001998 2.0001998 0 0 0 48 33 L 48 52.5625 C 46.56839 51.594659 44.855077 51.03125 43 51.03125 C 38.053128 51.03125 34.03125 55.053128 34.03125 60 C 34.03125 64.946872 38.053128 68.96875 43 68.96875 C 47.25857 68.96875 50.806888 65.985368 51.71875 62 A 2.0001998 2.0001998 0 0 0 52 61 L 52 34.375 L 66.6875 28.875 A 2.0001998 2.0001998 0 0 0 65.8125 25 z M 43 54.96875 C 45.611042 54.96875 47.743032 56.958371 48 59.5 L 48 60.5 C 47.743032 63.041629 45.611042 65.03125 43 65.03125 C 40.214889 65.03125 37.96875 62.785111 37.96875 60 C 37.96875 57.214889 40.214889 54.96875 43 54.96875 z "/></svg>