<svg xmlns="http://www.w3.org/2000/svg" data-name="Layer 1" viewBox="0 0 64 64" x="0px" y="0px"><title>Artboard 37</title><path d="M59.44,25.54H58.18a27,27,0,0,0-6.13-11.81L52,13.64A27.16,27.16,0,0,0,35.15,4.82L35,4.8a26.67,26.67,0,0,0-6.52,0l-.14,0a27.21,27.21,0,0,0-16.83,8.82l-.07.09A27,27,0,0,0,5.32,25.54H4.06a.87.87,0,0,0-.88.88V37.08a.87.87,0,0,0,.88.88H5.32a27,27,0,0,0,6.15,11.83h0v0a27.2,27.2,0,0,0,16.87,8.87l.11,0a27.16,27.16,0,0,0,6.58,0l.11,0A27.14,27.14,0,0,0,58.18,38h1.26a.87.87,0,0,0,.88-.88V26.42A.87.87,0,0,0,59.44,25.54Zm-40.11,0a42,42,0,0,1,1.5-7.21,50.11,50.11,0,0,0,10.05,1.15v6.06Zm9.43-19c.7-.08,1.41-.14,2.12-.16V17.73a47.83,47.83,0,0,1-9.51-1.07C23.17,11.65,25.83,8,28.76,6.53Zm6,0c2.93,1.46,5.59,5.12,7.39,10.13a47.81,47.81,0,0,1-9.5,1.07V6.37C33.33,6.39,34,6.45,34.74,6.53Zm-2.11,13a50.1,50.1,0,0,0,10-1.15,42,42,0,0,1,1.5,7.21H32.63Zm13.3,6.06a45,45,0,0,0-1.55-7.63,34.15,34.15,0,0,0,6.78-2.54,25.3,25.3,0,0,1,5.22,10.17Zm4-11.52a33.79,33.79,0,0,1-6.1,2.23,24.12,24.12,0,0,0-5.16-8.93A25.46,25.46,0,0,1,49.94,14ZM24.82,7.32a24.12,24.12,0,0,0-5.16,8.93A33.79,33.79,0,0,1,13.56,14,25.46,25.46,0,0,1,24.82,7.32Zm-12.48,8a34.15,34.15,0,0,0,6.78,2.54,45,45,0,0,0-1.55,7.63H7.12A25.3,25.3,0,0,1,12.34,15.37ZM44.17,38a42,42,0,0,1-1.5,7.21,50.1,50.1,0,0,0-10-1.15V38ZM34.74,57c-.7.08-1.41.14-2.11.16V45.77a47.81,47.81,0,0,1,9.5,1.07C40.33,51.85,37.68,55.5,34.74,57Zm-6,0c-2.94-1.47-5.6-5.12-7.39-10.13a47.83,47.83,0,0,1,9.51-1.07V57.13C30.17,57.11,29.46,57.05,28.76,57ZM30.88,44a50.11,50.11,0,0,0-10,1.15A42,42,0,0,1,19.33,38H30.88ZM17.57,38a44.6,44.6,0,0,0,1.55,7.63,33.77,33.77,0,0,0-6.78,2.54A25.3,25.3,0,0,1,7.12,38Zm-4,11.52a32.34,32.34,0,0,1,6.1-2.22,24.24,24.24,0,0,0,5.16,8.92A25.46,25.46,0,0,1,13.56,49.48Zm25.12,6.7a24.24,24.24,0,0,0,5.16-8.92,32.34,32.34,0,0,1,6.1,2.22A25.46,25.46,0,0,1,38.68,56.18Zm12.48-8a33.77,33.77,0,0,0-6.78-2.54A44.6,44.6,0,0,0,45.93,38H56.38A25.3,25.3,0,0,1,51.16,48.13Zm7.41-11.92H4.93V27.29H58.57ZM12.29,33a3.54,3.54,0,1,0-3,1.74,3.49,3.49,0,0,0,1.81-.5l1.35,1.35a.86.86,0,0,0,.62.25.87.87,0,0,0,.62-1.49ZM7.45,31.2A1.8,1.8,0,1,1,9.24,33,1.79,1.79,0,0,1,7.45,31.2Z"/></svg>