<svg xmlns="http://www.w3.org/2000/svg" xmlns:xlink="http://www.w3.org/1999/xlink" xml:space="preserve" style="shape-rendering:geometricPrecision;text-rendering:geometricPrecision;image-rendering:optimizeQuality;" viewBox="0 0 8.82666 8.533325000000001" x="0px" y="0px" fill-rule="evenodd" clip-rule="evenodd"><defs><style type="text/css">
   
    .fil1 {fill:none}
    .fil0 {fill:black;fill-rule:nonzero}
   
  </style></defs><g><path class="fil0" d="M1.80667 1.14l2.53407 0c0.208878,0 0.398717,0.0853898 0.536287,0.222969 0.137579,0.137571 0.222969,0.327409 0.222969,0.536287l0 2.32333 0 0.08 -0.08 0 -3.21333 0 -0.08 0 0 -0.08 0 -3.00259 0 -0.08 0.08 0zm2.53407 0.16l-2.45407 0 0 2.84259 3.05333 0 0 -2.24333c0,-0.164713 -0.0674409,-0.314512 -0.176094,-0.423161 -0.10865,-0.108654 -0.258449,-0.176094 -0.423161,-0.176094z"/><path class="fil0" d="M5.53203 5.68667l-4.2374 0 -0.08 0 0 -0.08 0 -1.38408 0 -0.08 0.08 0 4.2374 0 0.08 0 0 0.08 0 1.38408 0 0.08 -0.08 0zm-4.1574 -0.16l4.0774 0 0 -1.22408 -4.0774 0 0 1.22408z"/><polygon class="fil0" points="2.2918,2.11202 4.53486,2.11202 4.53486,2.27202 2.2918,2.27202 "/><polygon class="fil0" points="2.2918,2.67452 4.53486,2.67452 4.53486,2.83452 2.2918,2.83452 "/><polygon class="fil0" points="2.2918,3.23702 4.53486,3.23702 4.53486,3.39702 2.2918,3.39702 "/><path class="fil0" d="M2.11474 4.49919l0.25711 0 0 0.45139c0,0.0947244 -0.00850787,0.166827 -0.0253268,0.216315 -0.0168189,0.0494921 -0.0504528,0.0914409 -0.101295,0.12585 -0.0508425,0.0342165 -0.115795,0.0514213 -0.195055,0.0514213 -0.0838976,0 -0.14885,-0.0112126 -0.194858,-0.0340236 -0.0462008,-0.0226181 -0.0817717,-0.0556732 -0.106709,-0.0993622 -0.0251299,-0.0434961 -0.0400157,-0.0974331 -0.0444646,-0.16161l0.245122 -0.0334449c0.000389764,0.0365354 0.00367323,0.0637953 0.00966535,0.0815787 0.00599606,0.0177835 0.0162402,0.0320906 0.0305472,0.0429134 0.00985827,0.00734646 0.0237756,0.0108268 0.0419488,0.0108268 0.0286102,0 0.0496811,-0.0106299 0.0632126,-0.0318976 0.0133386,-0.0214567 0.0201024,-0.0574134 0.0201024,-0.107866l0 -0.512091zm0.383343 0.555587l0.244157 -0.0152756c0.00521654,0.0396299 0.0160433,0.0697874 0.0322835,0.0906654 0.0262874,0.0336378 0.0641772,0.0502638 0.11328,0.0502638 0.0365354,0 0.0647598,-0.00850787 0.0846732,-0.0257126 0.0197165,-0.0172047 0.0295748,-0.0371142 0.0295748,-0.0597323 0,-0.0214606 -0.00927953,-0.0407913 -0.0282244,-0.0578031 -0.0189449,-0.0170118 -0.0626339,-0.0330551 -0.131453,-0.0481339 -0.112508,-0.0253228 -0.192732,-0.0587677 -0.240673,-0.100717 -0.0483307,-0.0419488 -0.0724921,-0.0953031 -0.0724921,-0.160256 0,-0.0427244 0.0123701,-0.083126 0.0371142,-0.121016 0.0247441,-0.0378898 0.0618622,-0.0676614 0.111543,-0.0895039 0.0496811,-0.0216496 0.117728,-0.0324764 0.204138,-0.0324764 0.10613,0 0.187126,0.0197165 0.242803,0.0591535 0.0556732,0.039437 0.0887283,0.102264 0.0993622,0.188287l-0.241835 0.0141102c-0.00638189,-0.0373071 -0.0199134,-0.064563 -0.0405984,-0.0815748 -0.0204882,-0.0168189 -0.0489055,-0.0253268 -0.0850551,-0.0253268 -0.0299646,0 -0.0523898,0.00618898 -0.0674685,0.0189449 -0.0150787,0.0125669 -0.0226181,0.0280315 -0.0226181,0.0462047 0,0.0131417 0.00618898,0.024937 0.0185591,0.0355669 0.0121811,0.0110197 0.0407913,0.0210709 0.0862165,0.0305433 0.112122,0.0241654 0.19235,0.0487165 0.24087,0.0734606 0.0485236,0.0247441 0.0838976,0.0552874 0.105937,0.0920157 0.0220354,0.0365394 0.033248,0.0775197 0.033248,0.122949 0,0.0531614 -0.0148819,0.102264 -0.0442677,0.14711 -0.0293819,0.0450433 -0.0705591,0.0790669 -0.123528,0.102264 -0.0527756,0.0231969 -0.119469,0.0347953 -0.199886,0.0347953 -0.141118,0 -0.238937,-0.027063 -0.293256,-0.0815748 -0.0545157,-0.0543228 -0.085252,-0.123335 -0.0924055,-0.207232zm0.850004 -0.139961c0,-0.135512 0.0378898,-0.241063 0.11328,-0.316457 0.0755866,-0.0755827 0.180748,-0.11328 0.315488,-0.11328 0.13822,0 0.244736,0.0371142 0.319547,0.111346 0.0746181,0.0740394 0.112122,0.178043 0.112122,0.311622 0,0.0970433 -0.0164291,0.176689 -0.0491024,0.238744 -0.0326693,0.0620551 -0.0798386,0.110382 -0.141504,0.144984 -0.0618622,0.0346024 -0.138606,0.0518071 -0.230815,0.0518071 -0.0935669,0 -0.171083,-0.0148819 -0.232559,-0.0446535 -0.0612795,-0.0299646 -0.110961,-0.0771339 -0.149236,-0.141701 -0.0380827,-0.0645669 -0.0572205,-0.14537 -0.0572205,-0.242413zm0.25672 0.00116142c0,0.0838976 0.0154646,0.144016 0.0465866,0.180748 0.031126,0.0365354 0.0736535,0.0548976 0.127201,0.0548976 0.0550945,0 0.0978189,-0.0179764 0.127972,-0.0537402 0.0301575,-0.0359567 0.0454291,-0.100331 0.0454291,-0.193118 0,-0.0782953 -0.0158504,-0.135323 -0.0473622,-0.171472 -0.0315079,-0.0359528 -0.0742323,-0.0539331 -0.128358,-0.0539331 -0.0516142,0 -0.0931772,0.0181732 -0.124496,0.0549016 -0.031315,0.0365354 -0.0469724,0.0972362 -0.0469724,0.181717zm0.743484 -0.416787l0.239709 0 0.312587 0.459315 0 -0.459315 0.241835 0 0 0.830283 -0.241835 0 -0.311043 -0.455835 0 0.455835 -0.241252 0 0 -0.830283z"/></g><rect class="fil1" width="6.82666" height="6.82666"/></svg>