<svg xmlns="http://www.w3.org/2000/svg" xmlns:xlink="http://www.w3.org/1999/xlink" xml:space="preserve" style="shape-rendering:geometricPrecision;text-rendering:geometricPrecision;image-rendering:optimizeQuality;" viewBox="0 0 8.33333 8.416662500000001" x="0px" y="0px" fill-rule="evenodd" clip-rule="evenodd"><defs><style type="text/css">
   
    .fil1 {fill:none}
    .fil0 {fill:black}
   
  </style></defs><g><path class="fil0" d="M5.15481 1.68666l-2.71465 0 0 2.21042c0,0.066252 -0.0537402,0.119992 -0.119992,0.119992 -0.066252,0 -0.119992,-0.0537402 -0.119992,-0.119992l0 -2.33041c0,-0.066252 0.0537402,-0.119992 0.119992,-0.119992l2.91464 0c0.0320866,0 0.0625157,0.0128268 0.0851772,0.0354921l0.77802 0.77802c0.0225512,0.0225472 0.0351496,0.0529488 0.0351496,0.0848386l3.93701e-006 1.55205c0,0.066252 -0.0537402,0.119992 -0.119992,0.119992 -0.066252,0 -0.119992,-0.0537402 -0.119992,-0.119992l0 -1.47206 -0.269189 0c-0.129106,0 -0.246421,-0.0527638 -0.331417,-0.137756 -0.0849921,-0.0849961 -0.137756,-0.202311 -0.137756,-0.331417l0 -0.269189zm-2.71465 4.96002l3.45301 0 0 -0.62522c0,-0.066252 0.0537402,-0.119992 0.119992,-0.119992 0.066252,0 0.119992,0.0537402 0.119992,0.119992l0 0.745213c0,0.066252 -0.0537402,0.119992 -0.119992,0.119992l-3.693 0c-0.066252,0 -0.119992,-0.0537402 -0.119992,-0.119992l0 -0.745213c0,-0.066252 0.0537402,-0.119992 0.119992,-0.119992 0.066252,0 0.119992,0.0537402 0.119992,0.119992l0 0.62522z"/><polygon class="fil0" points="3.0052,2.8249 5.32812,2.8249 5.32812,3.02489 3.0052,3.02489 "/><polygon class="fil0" points="3.0052,3.2995 5.32812,3.2995 5.32812,3.49949 3.0052,3.49949 "/><polygon class="fil0" points="3.0052,2.3503 4.64759,2.3503 4.64759,2.5503 3.0052,2.5503 "/><path class="fil0" d="M2.74953 4.45126l0.204476 0 0 0.642736c0,0.0839173 -0.00756693,0.148689 -0.0222205,0.193839 -0.0198583,0.0590984 -0.0557874,0.10661 -0.108031,0.142303 -0.0522402,0.0359331 -0.121028,0.0536614 -0.206366,0.0536614 -0.100224,0 -0.177283,-0.0278937 -0.231417,-0.0841535 -0.0538976,-0.0560236 -0.0813189,-0.138287 -0.0815551,-0.246787l0.19313 -0.0222205c0.0023622,0.0581496 0.010874,0.0992835 0.0255315,0.123394 0.0222165,0.0364016 0.0560236,0.0546063 0.101169,0.0546063 0.045622,0 0.0780079,-0.0130039 0.0969173,-0.0392402 0.0189094,-0.0260039 0.0283661,-0.0801378 0.0283661,-0.162398l0 -0.65574zm0.370654 0.685051l0.199512 -0.019622c0.0118189,0.0671339 0.0361654,0.116303 0.0730433,0.147744 0.0366417,0.0312008 0.0860433,0.0470394 0.148453,0.0470394 0.0659488,0 0.115827,-0.0139449 0.149157,-0.0420748 0.0335669,-0.0278937 0.0503504,-0.0605157 0.0503504,-0.0978661 0,-0.0241102 -0.00709055,-0.0444409 -0.0212756,-0.0612244 -0.0139449,-0.0170197 -0.0385276,-0.0316732 -0.073752,-0.0439685 -0.023874,-0.00850787 -0.0787165,-0.0231654 -0.164051,-0.0444409 -0.109921,-0.0271811 -0.186984,-0.060752 -0.231185,-0.100465 -0.0624094,-0.0557874 -0.0936102,-0.123866 -0.0936102,-0.204236 0,-0.0517677 0.0146535,-0.0999921 0.0439685,-0.145142 0.029311,-0.0449134 0.071622,-0.079189 0.126701,-0.102831 0.055315,-0.0234016 0.12174,-0.0352205 0.199748,-0.0352205 0.12765,0 0.223386,0.0278937 0.287921,0.0836811 0.0642953,0.0560236 0.0980984,0.130484 0.101409,0.223858l-0.204949 0.00898425c-0.00874409,-0.0522441 -0.0276575,-0.0898268 -0.0564961,-0.11252 -0.0288386,-0.0229291 -0.0720984,-0.0342795 -0.129776,-0.0342795 -0.0595709,0 -0.106374,0.0120591 -0.139941,0.0366417 -0.021748,0.0156024 -0.032622,0.0366417 -0.032622,0.062878 0,0.0241142 0.0101654,0.0446772 0.0304921,0.0616969 0.0257677,0.021748 0.0886457,0.0444409 0.188402,0.0678465 0.0997559,0.0236378 0.173508,0.0479843 0.22126,0.0730433 0.047748,0.0252913 0.0850984,0.0595669 0.112283,0.103299 0.0269488,0.0437323 0.0404213,0.0976299 0.0404213,0.161689 0,0.0581496 -0.0160748,0.112756 -0.0484606,0.163343 -0.0323819,0.0508228 -0.0780079,0.0886457 -0.137102,0.113232 -0.0590984,0.0248189 -0.13285,0.0371102 -0.221024,0.0371102 -0.128358,0 -0.226929,-0.0295472 -0.29572,-0.0888819 -0.0687874,-0.0593307 -0.109917,-0.14585 -0.123157,-0.259315zm0.956421 -0.171146c0,-0.103535 0.0153661,-0.190291 0.0463307,-0.260496 0.0231654,-0.0515354 0.0546063,-0.0981024 0.0945551,-0.139232 0.0399488,-0.0408976 0.0836811,-0.0713898 0.131197,-0.091248 0.0633504,-0.0269488 0.136157,-0.040185 0.218894,-0.040185 0.149634,0 0.269244,0.0463307 0.359071,0.139232 0.0898228,0.0926654 0.134736,0.221732 0.134736,0.386965 0,0.164055 -0.0446772,0.292177 -0.133791,0.384839 -0.0891181,0.0924291 -0.208256,0.13876 -0.357181,0.13876 -0.151051,0 -0.271134,-0.0460945 -0.360252,-0.138051 -0.0891181,-0.092189 -0.133559,-0.21913 -0.133559,-0.380583zm1.14671 0.501378l0 -1.01528 0.199512 0 0.415567 0.677961 0 -0.677961 0.190528 0 0 1.01528 -0.205894 0 -0.409185 -0.662122 0 0.662122 -0.190528 0zm-2.78316 0.634906l3.45301 0 0.239984 0 0.401661 0c0.0441811,0 0.08,-0.0358189 0.08,-0.08l0 -2.12438c0,-0.0441811 -0.0358189,-0.08 -0.08,-0.08l-0.401661 0 -0.239984 0 -3.45301 0 -0.239984 0 -0.401661 0c-0.0441811,0 -0.08,0.0358189 -0.08,0.08l0 2.12438c0,0.0441811 0.0358189,0.08 0.08,0.08l0.401661 0 0.239984 0z"/><path class="fil0" d="M4.36523 4.69616c-0.0515315,0.0579134 -0.0775354,0.145142 -0.0775354,0.262154 0,0.114886 0.0267126,0.20211 0.0796614,0.261445 0.053189,0.0593307 0.120559,0.0888819 0.202346,0.0888819 0.0815551,0 0.148689,-0.029315 0.201165,-0.0884094 0.0522441,-0.0588622 0.0784803,-0.147031 0.0784803,-0.264756 0,-0.116299 -0.0255276,-0.203055 -0.0763504,-0.260496 -0.0510591,-0.0572047 -0.118906,-0.085811 -0.203295,-0.085811 -0.084626,0 -0.152705,0.0290787 -0.204472,0.0869921z"/></g><rect class="fil1" width="8.33333" height="8.33333"/></svg>