<svg xmlns="http://www.w3.org/2000/svg" viewBox="0 0 24 30" enable-background="new 0 0 24 24" x="0px" y="0px"><g><path d="M21.497 22h-18.995c-1.379 0-2.502-1.123-2.502-2.503v-14.995c0-1.379 1.123-2.502 2.502-2.502h18.995c1.38 0 2.503 1.123 2.503 2.502v14.995c0 1.38-1.123 2.503-2.503 2.503zm-18.995-18c-.276 0-.502.226-.502.502v14.995c0 .277.226.503.502.503h18.995c.277 0 .503-.226.503-.503v-14.995c0-.276-.226-.502-.503-.502h-18.995zM9.339 16.754c-.233 0-.466-.061-.673-.181-.411-.239-.666-.682-.666-1.158v-6.83c0-.476.255-.919.667-1.158.411-.239.924-.241 1.337-.004l5.976 3.415h.001c.415.238.674.684.674 1.163s-.259.924-.674 1.162l-5.977 3.416c-.205.116-.435.175-.665.175zm.661-7.031v4.554l3.985-2.277-3.985-2.277zm4.986 2.849zM3 18c0-.55.45-1 1-1s1 .45 1 1-.45 1-1 1-1-.45-1-1zm0-4c0-.55.45-1 1-1s1 .45 1 1-.45 1-1 1-1-.45-1-1zm0-4c0-.55.45-1 1-1s1 .45 1 1-.45 1-1 1-1-.45-1-1zm0-4c0-.55.45-1 1-1s1 .45 1 1-.45 1-1 1-1-.45-1-1zM19 18c0-.55.45-1 1-1s1 .45 1 1-.45 1-1 1-1-.45-1-1zm0-4c0-.55.45-1 1-1s1 .45 1 1-.45 1-1 1-1-.45-1-1zm0-4c0-.55.45-1 1-1s1 .45 1 1-.45 1-1 1-1-.45-1-1zm0-4c0-.55.45-1 1-1s1 .45 1 1-.45 1-1 1-1-.45-1-1z"/></g></svg>